# xmcd CD database file
#
# Track frame offsets:
#	183
#	17563
#	36650
#	56600
#	76140
#	94445
#	115678
#	130148
#	152575
#	173198
#
# Disc length: 2549 seconds
#
# Revision: 3
# Processed by: cddbd v1.4PL0 Copyright (c) Steve Scherf et al.
# Submitted via: CDex 1.50beta10
#
DISCID=7a09f30a
DTITLE=Bonnie Raitt - Nine Lives
DYEAR=1986
DGENRE=Blues
TTITLE0=No Way to Treat a Lady
TTITLE1=Runnin' Back to Me
TTITLE2=Who But a Fool (Thief Into Paradise)
TTITLE3=Crime of Passion
TTITLE4=All Day, All Night
TTITLE5=Stand Up to the Night
TTITLE6=Excited
TTITLE7=Freezin' (For a Little Human Love)
TTITLE8=True Love is Hard to Find
TTITLE9=Angel
EXTD=YEAR: 1986
EXTT0=
EXTT1=
EXTT2=
EXTT3=
EXTT4=
EXTT5=
EXTT6=
EXTT7=
EXTT8=
EXTT9=
PLAYORDER=
